<?xml version="1.0" standalone="no"?>
<!DOCTYPE svg PUBLIC "-//W3C//DTD SVG 20010904//EN"
 "http://www.w3.org/TR/2001/REC-SVG-20010904/DTD/svg10.dtd">
<svg version="1.0" xmlns="http://www.w3.org/2000/svg"
 width="1024.000000pt" height="1024.000000pt" viewBox="0 0 1024.000000 1024.000000"
 preserveAspectRatio="xMidYMid meet">

<g transform="translate(0.000000,1024.000000) scale(0.100000,-0.100000)"
fill="#000000" stroke="none">
<path d="M5465 8199 c-4 -5 -4 -300 1 -655 l7 -645 61 3 61 3 2 320 c2 353 4
953 4 973 -1 15 -127 17 -136 1z"/>
<path d="M5915 8020 c-9 -28 2 -40 36 -40 26 0 29 3 29 30 0 27 -3 30 -29 30
-21 0 -32 -6 -36 -20z"/>
<path d="M6197 7859 c-26 -16 -59 -32 -72 -35 -17 -4 -27 -15 -31 -33 -3 -14
-16 -49 -30 -77 -29 -62 -31 -123 -5 -178 11 -23 25 -53 30 -68 6 -15 25 -35
43 -44 18 -9 46 -27 61 -40 25 -21 39 -24 116 -24 83 0 90 2 126 30 21 17 49
33 62 36 14 4 26 16 30 33 3 14 16 44 29 67 32 54 32 129 2 187 -13 23 -25 53
-28 66 -4 19 -22 33 -72 58 -36 18 -69 37 -73 43 -3 5 -36 10 -73 9 -56 0 -75
-6 -115 -30z m201 -69 c23 -11 47 -30 53 -43 6 -12 19 -31 29 -42 30 -35 33
-84 8 -137 -22 -47 -38 -61 -38 -34 0 7 7 19 15 26 17 14 20 85 6 123 -12 31
-80 96 -108 103 -13 4 -23 10 -23 15 0 13 12 11 58 -11z m-160 -15 c-61 -32
-91 -75 -96 -141 -5 -56 -4 -57 61 -127 44 -48 41 -59 -8 -26 -78 52 -98 158
-46 240 28 45 78 79 116 78 13 0 4 -9 -27 -24z m106 -117 l26 -32 -31 -30 -31
-30 -16 21 c-10 12 -28 23 -42 25 -37 5 -32 32 6 36 22 2 34 9 37 23 7 27 20
24 51 -13z m106 -157 c0 -14 -50 -43 -68 -38 -15 3 -14 5 3 12 11 5 24 14 28
22 9 15 37 18 37 4z m-90 -51 c0 -14 -44 -23 -71 -15 -17 6 -19 9 -8 16 19 12
79 11 79 -1z"/>
<path d="M5213 7754 c-9 -23 5 -836 15 -846 4 -4 32 -5 62 -1 l55 5 0 142 c0
77 2 266 3 418 2 153 0 282 -3 288 -3 5 -33 10 -66 10 -46 0 -61 -4 -66 -16z"/>
<path d="M4625 7708 c-27 -22 -51 -43 -53 -47 -3 -9 93 -91 107 -91 7 0 11 33
11 90 0 50 -3 90 -7 89 -5 0 -30 -18 -58 -41z"/>
<path d="M4076 7693 c-3 -16 -5 -54 -4 -85 0 -46 4 -58 17 -58 16 0 101 75
101 90 0 10 -85 80 -98 80 -6 0 -13 -12 -16 -27z"/>
<path d="M3324 7655 c-8 -20 4 -35 27 -35 24 0 37 29 18 41 -21 13 -39 11 -45
-6z"/>
<path d="M3620 7640 c-6 -4 -10 -18 -8 -31 2 -18 9 -24 28 -24 19 0 26 6 28
26 3 28 -24 44 -48 29z"/>
<path d="M4229 7612 c-21 -9 -129 -105 -129 -114 0 -5 128 -8 285 -8 157 0
285 4 285 8 0 14 -128 122 -144 122 -9 0 -41 -20 -72 -45 -30 -25 -61 -45 -68
-45 -8 0 -41 20 -74 45 -33 25 -61 45 -63 44 -2 0 -11 -3 -20 -7z"/>
<path d="M4954 7337 c-2 -8 -1 -107 3 -222 l8 -208 58 -2 c45 -2 59 2 65 14 4
9 7 108 7 221 l0 205 -68 3 c-50 2 -69 -1 -73 -11z"/>
<path d="M3029 7316 c-100 -27 -210 -116 -261 -212 -42 -78 -55 -183 -34 -278
64 -286 395 -417 647 -257 59 37 123 111 155 178 29 62 26 83 -12 83 -14 0
-52 6 -83 14 -31 7 -92 19 -136 25 -44 7 -89 14 -100 16 -11 2 -28 4 -37 4 -9
1 -24 9 -34 18 -15 15 -16 35 -9 199 4 101 4 192 0 203 -7 24 -28 26 -96 7z"/>
<path d="M3177 7255 c-4 -43 -7 -129 -7 -192 l0 -113 29 0 c17 0 32 4 36 9 3
5 22 15 43 22 33 11 131 54 220 98 17 8 32 18 32 21 0 3 -13 26 -28 51 -59 92
-165 161 -270 175 l-49 6 -6 -77z"/>
<path d="M6923 7293 c-16 -6 -17 -55 -1 -71 15 -15 291 -17 319 -2 19 11 24
35 13 64 -5 14 -29 16 -163 15 -86 0 -162 -3 -168 -6z"/>
<path d="M3880 7171 c0 -10 50 -25 57 -17 3 2 2 9 -2 15 -8 13 -55 15 -55 2z"/>
<path d="M4710 7161 c0 -26 14 -34 67 -36 34 -1 46 3 54 17 16 29 2 38 -62 38
-52 0 -59 -2 -59 -19z"/>
<path d="M6210 7132 c0 -4 16 -23 35 -42 19 -19 35 -44 35 -56 0 -13 -14 -32
-35 -48 -19 -15 -35 -34 -35 -42 0 -22 9 -17 47 26 20 22 43 40 51 40 8 0 29
-16 48 -35 41 -44 68 -47 28 -3 -16 18 -32 34 -36 36 -19 9 -5 49 29 84 20 21
33 41 29 45 -4 4 -25 -12 -47 -35 -44 -45 -55 -45 -94 -2 -23 26 -55 44 -55
32z"/>
<path d="M3830 7120 c0 -5 7 -7 15 -4 8 4 15 8 15 10 0 2 -7 4 -15 4 -8 0 -15
-4 -15 -10z"/>
<path d="M3803 7093 c-15 -5 -18 -43 -4 -43 5 0 11 10 14 22 7 26 6 27 -10 21z"/>
<path d="M4247 7063 c-12 -11 -8 -50 7 -62 30 -25 76 -1 76 40 0 27 -3 29 -38
29 -21 0 -42 -3 -45 -7z"/>
<path d="M6618 6850 c-5 -36 -2 -40 35 -33 22 4 27 11 27 34 0 25 -4 29 -29
29 -24 0 -29 -5 -33 -30z"/>
<path d="M4477 6718 c-18 -15 -40 -57 -66 -123 -21 -55 -62 -154 -91 -220 -59
-137 -101 -236 -190 -450 -169 -406 -370 -882 -402 -954 -11 -25 -53 -126 -94
-225 -41 -100 -79 -190 -84 -201 -5 -11 -30 -69 -56 -130 -25 -60 -52 -123
-59 -140 -62 -148 -90 -214 -125 -300 -23 -55 -45 -109 -50 -120 -27 -61 -150
-357 -150 -361 0 -2 -9 -23 -19 -47 -31 -67 -74 -169 -155 -367 -42 -102 -87
-209 -101 -238 -42 -88 -56 -83 212 -80 l237 3 34 80 c39 92 283 693 378 930
36 88 69 169 74 180 19 42 49 113 75 180 15 39 34 76 43 83 12 9 156 12 641
12 344 0 631 -4 637 -8 16 -10 26 -32 98 -208 35 -87 78 -190 95 -227 17 -37
49 -113 71 -167 22 -55 44 -108 49 -118 5 -9 18 -37 29 -62 11 -25 32 -71 46
-103 14 -31 38 -85 52 -120 14 -34 38 -82 51 -107 14 -25 31 -61 39 -80 l13
-35 0 50 c1 38 4 46 13 37 7 -7 36 -12 65 -12 42 0 53 3 53 16 0 14 10 15 78
9 74 -6 78 -6 101 18 13 15 29 23 38 20 12 -5 14 -1 8 18 -4 13 -11 28 -16 34
-5 5 -9 17 -9 28 0 10 -13 51 -29 90 -16 40 -45 113 -64 162 -171 434 -218
551 -307 765 -56 135 -117 281 -135 325 -18 44 -61 145 -95 225 -34 80 -68
161 -75 180 -7 19 -24 60 -37 90 -14 30 -62 145 -107 255 -45 110 -89 216 -98
235 -9 19 -30 71 -48 115 -28 69 -56 133 -95 220 -5 11 -28 65 -50 120 -61
146 -118 281 -152 355 -17 36 -39 90 -51 120 -11 30 -26 64 -32 75 -7 11 -21
44 -31 73 -36 104 -101 146 -157 100z m96 -1025 c20 -49 88 -216 152 -373 256
-627 285 -703 274 -717 -16 -19 -947 -19 -955 0 -4 12 37 120 171 447 94 229
257 633 284 703 18 47 37 32 74 -60z m1457 -2530 c0 -14 -19 -38 -25 -32 -8 8
5 39 16 39 5 0 9 -3 9 -7z"/>
<path d="M4953 6639 c-10 -10 -13 -85 -13 -306 0 -289 0 -294 24 -341 13 -26
62 -138 110 -249 121 -283 128 -293 200 -293 25 0 40 7 55 26 20 26 21 37 21
421 0 306 3 395 13 398 29 9 553 12 677 4 205 -15 323 -60 427 -166 129 -132
184 -328 149 -533 -43 -245 -178 -392 -422 -461 -72 -20 -106 -23 -396 -27
-251 -3 -318 -6 -318 -17 0 -11 296 -525 490 -850 300 -504 679 -1143 812
-1370 l64 -110 237 -3 c191 -2 237 0 237 11 0 7 -4 17 -9 22 -9 10 -126 201
-291 475 -48 80 -135 222 -194 315 -152 242 -154 246 -246 395 -46 74 -97 160
-115 190 -18 30 -52 88 -76 127 -158 261 -279 465 -279 473 0 11 23 17 105 25
82 9 212 41 288 72 114 46 199 104 297 203 137 136 205 273 235 470 49 318
-32 614 -219 808 -143 150 -298 227 -537 271 -105 20 -163 22 -714 27 -491 5
-602 4 -612 -7z"/>
<path d="M7797 6454 c-4 -4 -7 -18 -7 -31 0 -20 5 -23 36 -23 33 0 35 2 32 28
-2 20 -9 28 -28 30 -14 2 -29 0 -33 -4z"/>
<path d="M2316 6435 c-20 -15 -16 -42 9 -51 18 -7 45 12 45 32 0 22 -33 34
-54 19z"/>
<path d="M7454 6375 c-10 -24 12 -42 34 -29 24 16 21 38 -6 42 -13 2 -25 -3
-28 -13z"/>
<path d="M3616 6255 c-3 -8 -1 -15 4 -15 6 0 10 7 10 15 0 8 -2 15 -4 15 -2 0
-6 -7 -10 -15z"/>
<path d="M3504 6225 c26 -19 42 -19 26 0 -7 8 -20 15 -29 15 -13 -1 -13 -3 3
-15z"/>
<path d="M3562 6185 c11 -25 42 -34 53 -15 10 16 -15 40 -41 40 -22 0 -23 -2
-12 -25z"/>
<path d="M3640 6155 c7 -8 19 -15 27 -15 13 0 13 3 3 15 -7 8 -19 15 -27 15
-13 0 -13 -3 -3 -15z"/>
<path d="M7407 6155 c-74 -20 -99 -53 -71 -94 36 -51 253 -77 388 -46 83 18
116 40 116 79 0 51 -88 76 -262 75 -68 0 -144 -7 -171 -14z"/>
<path d="M3080 6061 c0 -15 18 -23 25 -11 4 6 11 8 16 5 5 -4 9 -1 9 4 0 6
-11 11 -25 11 -14 0 -25 -4 -25 -9z"/>
<path d="M2711 5992 c-19 -15 -61 -51 -95 -80 -34 -29 -96 -77 -139 -105 -87
-58 -82 -68 22 -48 138 26 178 25 244 -3 49 -21 72 -38 110 -85 26 -32 47 -66
47 -74 0 -28 -32 -37 -76 -22 -21 7 -65 16 -96 20 -51 6 -63 4 -120 -24 -58
-28 -128 -83 -128 -99 0 -4 4 -23 10 -42 5 -19 11 -46 13 -60 9 -50 29 -116
52 -176 13 -34 27 -85 31 -113 4 -28 10 -54 14 -56 10 -6 26 68 35 150 3 32
15 78 27 101 41 83 157 171 202 155 24 -9 24 -50 0 -64 -32 -18 -44 -140 -23
-239 17 -80 30 -95 96 -108 32 -6 78 -17 103 -24 25 -8 65 -19 90 -27 25 -7
64 -21 88 -31 l43 -18 -18 31 c-10 17 -41 52 -70 79 -61 56 -104 122 -133 208
-23 66 -20 122 6 122 7 0 32 -20 54 -44 26 -28 56 -48 87 -58 55 -17 201 -23
223 -9 25 17 1 26 -33 13 -21 -8 -33 -9 -35 -2 -2 5 -15 10 -28 10 -20 0 -23
3 -16 18 5 9 7 23 4 30 -3 9 2 13 14 10 11 -2 18 -10 16 -17 -3 -17 16 -41 34
-41 11 0 11 8 -1 45 -11 39 -11 47 1 60 9 8 10 16 4 20 -5 3 -10 1 -10 -5 0
-6 -4 -8 -10 -5 -6 3 -7 -1 -4 -9 4 -11 0 -16 -10 -16 -22 0 -20 17 4 37 11
10 20 21 20 25 0 20 -76 37 -168 40 l-43 1 3 36 c3 32 6 37 36 41 18 3 33 8
32 13 0 4 0 11 0 16 0 5 -9 11 -20 14 -20 5 -28 41 -11 51 5 3 7 14 4 25 -4
14 1 18 19 17 24 -1 26 -12 14 -59 -7 -31 14 -60 37 -51 22 8 22 34 0 34 -17
1 -17 2 -1 13 9 7 18 26 20 42 2 24 -1 30 -14 29 -11 -1 -18 5 -18 16 0 9 -11
22 -25 28 -23 11 -25 10 -25 -13 0 -16 -6 -25 -15 -25 -8 0 -14 -3 -13 -8 2
-4 -8 -21 -21 -37 -13 -17 -21 -22 -18 -12 4 10 7 22 7 26 0 5 11 19 23 33 20
21 23 32 18 68 -3 24 -11 45 -17 47 -12 4 -24 -27 -24 -64 0 -13 -9 -37 -20
-55 -11 -18 -20 -41 -20 -51 0 -18 -45 -41 -61 -32 -5 4 -8 38 -8 78 2 97 -15
155 -57 201 -30 33 -37 36 -51 25 -14 -12 -15 -11 -9 7 6 19 -4 26 -76 63 -46
22 -85 41 -88 41 -3 0 -20 -13 -39 -28z m354 -426 c45 -45 52 -75 28 -123 -25
-52 -79 -79 -126 -64 -74 25 -100 84 -68 153 35 77 108 91 166 34z m85 18 c0
-2 -9 -4 -20 -4 -11 0 -20 4 -20 9 0 5 9 7 20 4 11 -3 20 -7 20 -9z m145 -184
c-13 -15 -22 -17 -29 -10 -12 12 8 30 33 30 11 0 10 -5 -4 -20z"/>
<path d="M3190 6000 c0 -5 5 -10 10 -10 6 0 10 5 10 10 0 6 -4 10 -10 10 -5 0
-10 -4 -10 -10z"/>
<path d="M7346 5983 c-3 -3 -6 -29 -6 -58 0 -49 2 -52 36 -68 19 -10 77 -22
128 -29 108 -14 244 2 296 33 28 17 30 23 30 74 0 30 -4 55 -10 55 -5 0 -30
-7 -56 -16 -56 -19 -307 -24 -339 -7 -29 15 -71 24 -79 16z"/>
<path d="M3140 5945 c0 -8 4 -15 10 -15 5 0 7 7 4 15 -4 8 -8 15 -10 15 -2 0
-4 -7 -4 -15z"/>
<path d="M7740 5779 c-72 -20 -194 -23 -280 -8 -30 5 -69 12 -87 15 l-32 6 1
-51 c0 -45 3 -53 26 -65 68 -34 249 -46 357 -22 97 21 107 28 103 88 -2 28 -7
52 -13 53 -5 1 -39 -6 -75 -16z"/>
<path d="M3340 5745 c0 -8 5 -15 10 -15 6 0 10 7 10 15 0 8 -4 15 -10 15 -5 0
-10 -7 -10 -15z"/>
<path d="M3300 5699 c0 -15 4 -19 16 -15 14 5 15 4 5 -8 -7 -8 -9 -21 -5 -27
4 -7 3 -9 -4 -5 -12 7 -38 -32 -28 -41 10 -10 46 29 46 49 0 11 5 29 11 40 10
18 9 20 -5 15 -9 -4 -16 -2 -16 3 0 6 -4 10 -10 10 -5 0 -10 -9 -10 -21z"/>
<path d="M8027 5623 c-13 -12 -7 -33 8 -33 8 0 15 9 15 20 0 20 -11 26 -23 13z"/>
<path d="M3438 5339 c-21 -23 -24 -59 -4 -59 12 0 36 47 36 71 0 14 -14 9 -32
-12z"/>
<path d="M2099 5321 c-16 -16 -29 -39 -29 -50 0 -93 128 -122 159 -35 16 45
-2 89 -43 104 -44 15 -55 13 -87 -19z"/>
<path d="M7829 5239 c-34 -37 -35 -47 -9 -99 15 -30 27 -40 44 -40 14 0 26 -5
28 -12 6 -17 61 11 87 43 16 21 18 32 11 62 -17 79 -107 104 -161 46z"/>
<path d="M7630 4895 c0 -8 7 -15 15 -15 8 0 15 7 15 15 0 8 -7 15 -15 15 -8 0
-15 -7 -15 -15z"/>
<path d="M8107 4855 c-7 -16 8 -29 23 -20 15 9 12 35 -4 35 -8 0 -16 -7 -19
-15z"/>
<path d="M7888 4803 c7 -3 16 -2 19 1 4 3 -2 6 -13 5 -11 0 -14 -3 -6 -6z"/>
<path d="M7566 4752 c-11 -18 4 -81 37 -152 40 -86 43 -177 9 -267 -25 -64
-57 -107 -73 -98 -5 4 -8 52 -8 108 2 137 -14 173 -138 306 l-41 45 -114 -46
c-62 -25 -150 -62 -194 -81 -45 -19 -98 -37 -118 -41 -84 -16 -16 -43 126 -50
104 -5 121 -11 185 -62 69 -56 150 -194 114 -194 -5 0 -29 16 -53 37 -23 20
-72 50 -107 66 l-63 30 -112 -12 c-61 -7 -119 -18 -130 -24 -13 -9 -31 -61
-62 -186 -24 -96 -54 -194 -66 -218 -38 -75 4 -71 79 9 104 110 124 128 166
140 53 16 205 17 232 1 22 -13 30 -9 -105 -58 -92 -34 -139 -79 -194 -187
l-40 -76 101 -108 c121 -130 173 -196 203 -254 17 -32 24 -40 31 -29 15 24 10
75 -17 161 -22 68 -25 95 -21 150 3 36 13 81 23 100 29 57 85 128 101 128 16
0 16 3 -7 -110 -24 -112 5 -189 119 -319 l38 -45 104 38 c57 21 147 54 199 73
52 19 118 38 145 42 28 3 49 11 49 16 -3 17 -102 45 -189 54 -100 10 -153 37
-212 108 -96 116 -95 172 3 98 73 -56 134 -69 267 -56 131 13 136 16 162 116
34 131 84 273 110 315 56 89 -15 57 -132 -60 -99 -99 -130 -113 -248 -114 -54
-1 -70 2 -70 13 0 8 14 19 31 25 61 22 141 86 168 136 32 59 66 155 65 184 0
13 -28 45 -77 86 -90 76 -242 227 -258 254 -7 14 -13 16 -18 8z m-21 -584 c15
-12 34 -37 42 -55 12 -30 12 -38 -3 -69 -43 -90 -177 -83 -203 10 -13 48 -3
82 31 111 38 32 94 34 133 3z"/>
<path d="M2488 4679 c-20 -11 -24 -53 -8 -93 10 -28 4 -56 -13 -56 -5 0 -33
14 -60 32 l-50 32 -23 -28 c-13 -15 -24 -31 -24 -35 0 -4 20 -26 45 -49 67
-61 59 -82 -30 -82 -50 0 -71 -23 -61 -65 6 -23 38 -35 98 -35 48 0 47 -28 0
-69 -47 -40 -53 -68 -22 -96 19 -17 21 -17 58 9 38 26 76 34 86 18 3 -5 -1
-33 -9 -63 -13 -49 -13 -55 2 -66 9 -7 29 -13 44 -13 23 0 30 7 49 55 28 70
46 69 79 -3 25 -54 42 -63 82 -41 18 9 20 17 14 74 -5 43 -3 65 4 70 7 3 34
-8 61 -25 53 -34 82 -31 95 10 8 25 -5 42 -51 71 -23 14 -34 28 -34 44 0 25
22 35 83 35 31 0 39 4 47 26 17 43 -2 64 -58 64 -44 0 -72 12 -72 32 0 4 21
28 46 53 44 43 46 46 32 68 -22 32 -54 33 -93 3 -56 -43 -83 -29 -64 36 14 51
11 76 -11 88 -33 18 -56 3 -79 -51 -26 -64 -55 -65 -80 -4 -28 69 -42 78 -83
54z m170 -205 c57 -23 81 -59 82 -121 0 -44 -4 -56 -30 -82 -35 -34 -89 -53
-131 -44 -16 3 -45 23 -64 44 -28 32 -35 47 -35 81 0 53 33 103 80 122 45 19
53 19 98 0z"/>
<path d="M3107 4604 c-13 -14 -7 -43 12 -53 27 -15 60 11 45 36 -12 19 -45 29
-57 17z"/>
<path d="M4985 4150 c-50 -20 -48 4 -37 -671 7 -434 13 -634 21 -642 8 -8 11
-7 11 3 0 8 5 22 10 30 9 13 11 13 21 0 7 -10 12 -11 15 -4 3 7 14 10 25 7 13
-4 30 3 47 19 37 33 102 62 103 45 0 -6 5 -2 11 10 6 12 23 27 38 33 16 6 31
21 35 33 7 20 8 20 15 -8 8 -32 9 -32 16 0 15 63 23 187 25 400 2 202 0 245
-14 275 -18 39 -131 333 -141 367 -9 28 -59 71 -111 94 -44 20 -60 22 -90 9z"/>
<path d="M3026 4042 c-3 -6 -1 -14 5 -17 15 -10 25 3 12 16 -7 7 -13 7 -17 1z"/>
<path d="M2490 3484 c-9 -23 -15 -26 -44 -21 -28 4 -35 2 -39 -14 -4 -14 -14
-19 -37 -19 -27 0 -31 -3 -25 -17 15 -36 10 -57 -18 -71 -27 -13 -29 -32 -3
-32 28 0 35 -22 15 -54 l-19 -31 37 -5 c36 -5 38 -7 35 -37 -2 -33 18 -47 33
-23 3 6 17 10 31 10 19 0 26 -6 31 -30 7 -36 20 -39 33 -6 11 31 41 48 61 35
22 -14 27 -11 31 19 3 23 8 27 41 30 43 4 44 5 18 39 -23 28 -19 49 11 56 25
7 19 31 -9 35 -25 4 -38 31 -23 46 20 20 11 37 -17 34 -23 -2 -29 1 -31 20 -3
20 -7 22 -38 16 -30 -5 -35 -3 -44 20 -12 33 -18 33 -30 0z"/>
<path d="M7745 3273 c-61 -15 -84 -86 -44 -137 21 -26 65 -35 104 -20 25 10
47 62 40 95 -12 53 -47 75 -100 62z"/>
<path d="M4960 2800 c0 -11 5 -20 10 -20 6 0 10 9 10 20 0 11 -4 20 -10 20 -5
0 -10 -9 -10 -20z"/>
</g>
</svg>
